<svg width="213" height="213" viewBox="0 0 213 213" fill="none" xmlns="http://www.w3.org/2000/svg">
<g filter="url(#filter0_d_414_761)">
<path fill-rule="evenodd" clip-rule="evenodd" d="M106.469 8C158.648 8 200.938 50.1917 200.938 102.247C200.938 154.303 158.647 196.495 106.469 196.495C54.291 196.495 12 154.303 12 102.247C12 50.1917 54.291 8 106.469 8ZM50.8062 98.8434C47.1087 94.4685 53.7694 88.8392 57.4668 93.2146L89.3037 130.677L161.726 64.4087C165.946 60.5301 171.873 66.9393 167.653 70.818L91.8648 140.161C89.9681 141.817 87.218 141.698 85.5594 139.783L50.8053 98.8428L50.8062 98.8434Z" fill="#B3DAE3"/>
</g>
<defs>
<filter id="filter0_d_414_761" x="0" y="0" width="212.938" height="212.495" filterUnits="userSpaceOnUse" color-interpolation-filters="sRGB">
<feFlood flood-opacity="0" result="BackgroundImageFix"/>
<feColorMatrix in="SourceAlpha" type="matrix" values="0 0 0 0 0 0 0 0 0 0 0 0 0 0 0 0 0 0 127 0" result="hardAlpha"/>
<feOffset dy="4"/>
<feGaussianBlur stdDeviation="6"/>
<feComposite in2="hardAlpha" operator="out"/>
<feColorMatrix type="matrix" values="0 0 0 0 0 0 0 0 0 0 0 0 0 0 0 0 0 0 0.1 0"/>
<feBlend mode="normal" in2="BackgroundImageFix" result="effect1_dropShadow_414_761"/>
<feBlend mode="normal" in="SourceGraphic" in2="effect1_dropShadow_414_761" result="shape"/>
</filter>
</defs>
</svg>
