<svg width="17" height="12" viewBox="0 0 17 12" fill="none" xmlns="http://www.w3.org/2000/svg">
<path fill-rule="evenodd" clip-rule="evenodd" d="M0.51213 9.54275H1.86986C2.02568 8.37809 2.96049 7.4802 4.07325 7.4802C5.11931 7.4802 6.00959 8.28087 6.2322 9.34864C6.43248 9.1303 6.69956 8.71772 6.65509 8.13535H11.2179V9.42145H11.3515C11.5741 8.30523 12.4644 7.48031 13.5326 7.48031C14.6233 7.48031 15.5136 8.30534 15.7138 9.42145H15.8919V8.13535H16.9602V6.14561H6.81088V1.60791H2.49283L0.667754 5.02928V7.38301H0L0.51213 9.54275ZM13.6215 7.96546C14.6007 7.96546 15.402 8.83897 15.402 9.9066C15.402 10.9742 14.6007 11.8235 13.6215 11.8235C12.6422 11.8235 11.8632 10.9742 11.8632 9.9066C11.8632 8.83897 12.6422 7.96546 13.6215 7.96546ZM13.6215 8.83897C14.1556 8.83897 14.6007 9.32427 14.6007 9.9066C14.6007 10.4889 14.1556 10.95 13.6215 10.95C13.0873 10.95 12.6644 10.489 12.6644 9.9066C12.6644 9.32427 13.0873 8.83897 13.6215 8.83897ZM7.72324 0.176468H16.4034C16.6483 0.176468 16.8263 0.394809 16.8263 0.637504V5.15098C16.8263 5.39369 16.6483 5.58779 16.4034 5.58779H7.72324C7.50061 5.58779 7.32257 5.39368 7.32257 5.15098V0.637504C7.32257 0.39479 7.50062 0.176468 7.72324 0.176468ZM4.07308 7.96549C5.05236 7.96549 5.83134 8.83901 5.83134 9.90664C5.83134 10.9743 5.05232 11.8235 4.07308 11.8235C3.0938 11.8235 2.29257 10.9742 2.29257 9.90664C2.29257 8.83901 3.0938 7.96549 4.07308 7.96549ZM4.07308 8.83901C4.60722 8.83901 5.03014 9.32431 5.03014 9.90664C5.03014 10.489 4.60726 10.95 4.07308 10.95C3.53894 10.95 3.0938 10.489 3.0938 9.90664C3.0938 9.32431 3.53894 8.83901 4.07308 8.83901ZM6.20982 5.17494V2.28747H2.75996L1.31319 4.93235V6.07279H2.64857L3.16049 5.17505H6.20968L6.20982 5.17494Z" fill="#7C7C7C"/>
</svg>
